<svg width="18" height="14" fill="none" xmlns="http://www.w3.org/2000/svg"><path fill-rule="evenodd" clip-rule="evenodd" d="M15.755 7.76v.019s-4.185 3.734-5.556 4.973a.378.378 0 01-.076.056c-.326.24-.722.365-1.126.357a1.794 1.794 0 01-1.166-.4.473.473 0 01-.1-.076 1939.325 1939.325 0 00-5.459-4.878v-.019A4.494 4.494 0 119 1.86a4.492 4.492 0 116.755 5.9zm-3.251-5.61A2.565 2.565 0 0010 4.16a1 1 0 01-2 0 2.565 2.565 0 00-2.506-2 2.5 2.5 0 00-1.777 4.264l-.013.019L9 11.26l5.179-4.749c.042-.039.086-.075.126-.117l.052-.047-.006-.008A2.494 2.494 0 0012.5 2.153l.004-.003z" fill="#999"/></svg>