<svg width="131" height="26" fill="none" xmlns="http://www.w3.org/2000/svg"><g clip-path="url(#clip0_2002_173)" fill="#001899"><path d="M76.524 14.288l-1.149 4.461a.577.577 0 01-.198.37.591.591 0 01-.398.142H64.603a6.889 6.889 0 01-2.466-.375 3.01 3.01 0 01-1.435-1.059 3.12 3.12 0 01-.52-1.662 7.432 7.432 0 01.265-2.182l.163-.633.543-2.107c.08-.313.174-.615.279-.906l.012-.034a8.203 8.203 0 01.568-1.24l.017-.032.035-.06.018-.03.017-.03.015-.025.021-.035.018-.03.019-.029.018-.029.019-.029.019-.029.019-.029.057-.085.039-.056.06-.083.02-.028.03-.041.017-.022.034-.045.003-.004.018-.023.024-.03.017-.023.028-.034.036-.044.022-.026.065-.077.045-.05.004-.006.063-.07.069-.073.023-.024.07-.072.048-.046.048-.047.004-.004.005-.005.004-.004.005-.004.004-.005.005-.004.004-.004.005-.005.004-.004.005-.004.004-.004.005-.005.004-.004.005-.004.005-.006.005-.004.005-.004.004-.005.005-.004.005-.004.004-.004.005-.005.005-.004.004-.004.005-.004.004-.004.005-.005.005-.004.004-.004.005-.004.005-.004.004-.004.005-.005.005-.004.004-.004.005-.004.005-.004.005-.004.004-.004.01-.009.004-.004.005-.004.005-.004.004-.004.005-.004.005-.004.005-.004.004-.004.005-.004.005-.004.005-.004.004-.004.005-.004.005-.004.005-.004.004-.004.005-.004.005-.004.004-.004.005-.004.005-.004.005-.004.004-.004.004-.003.002-.002.002-.001.006-.005.004-.004.004-.003.014-.011.095-.076.02-.016.007-.004.108-.08.015-.012.012-.009.056-.039.028-.019.027-.019.014-.009.044-.03.029-.018.028-.019.058-.036.016-.01.043-.026.03-.018.03-.018.09-.052.03-.017.008-.005.022-.012.031-.017.062-.033.059-.03.011-.007.003-.001.003-.002.003-.001.003-.002.003-.001.003-.002.003-.001.003-.001.003-.002.003-.001.002-.002.003-.001.003-.002.003-.001.003-.002.003-.001.003-.002.003-.001.006-.003.06-.03.047-.021.017-.009.02-.01.013-.005.032-.015.014-.006.019-.009.1-.043.033-.015.101-.041.008-.004.026-.01.034-.014.07-.026.034-.013.045-.016.025-.01.07-.025.019-.006.052-.018.04-.014.036-.011.019-.006.017-.006.036-.011.009-.003.065-.02.03-.008.007-.003.036-.01.038-.01.046-.013.003-.001.063-.017.092-.023.06-.015.01-.002h.002l.004-.001.002-.001.007-.001.009-.003h.006l.015-.004h.003l.003-.002.009-.002h.003l.003-.001h.003l.003-.001h.003l.003-.001.003-.001h.003l.003-.001.003-.001h.004l.003-.001h.003l.003-.001.003-.001h.003l.006-.002.006-.001.007-.002.006-.001h.003l.01-.003.017-.003.01-.002.012-.003.032-.006.014-.003.072-.014.04-.008h.003l.004-.001h.004l.003-.001.004-.001h.003l.004-.001.004-.001h.003l.004-.001.003-.001h.004l.004-.001.003-.001h.004l.004-.001h.003l.004-.001.003-.001h.004l.004-.001.003-.001h.004l.003-.001h.004l.004-.001.003-.001h.004l.004-.001.003-.001h.004l.004-.001h.003l.004-.001.004-.001h.003l.007-.004h.003l.004-.001h.004l.003-.001.004-.001h.004l.003-.001h.004l.004-.001h.003l.004-.001.004-.001h.003l.004-.001h.004l.004-.001h.003l.004-.002h.007l.004-.001h.004l.004-.001.003-.001h.004l.004-.001h.003l.047-.008.083-.012.083-.011.042-.006h.007l.006-.001.006-.001.007-.001h.006l.02-.003.026-.003.013-.002.053-.006.134-.014.04-.003.008-.001.075-.006.027-.003.052-.003.04-.003.038-.003.08-.005h.013l.026-.002h.014l.013-.001.026-.002h.014l.013-.001.04-.002h.027l.013-.001.027-.002h.041l.013-.001h.014l.014-.001.016-.002h.027l.014-.001H78.22l.008.001h.007l.004.001h.003l.004.001h.007l.003.001h.004l.003.001h.004l.003.002h.007l.003.001h.004l.003.002h.007l.003.001.003.001h.004l.003.001.003.001h.003l.003.002h.004l.003.001h.003l.003.002.013.003.026.01.023.008.02.01.002.001.002.001.002.001.001.001h.001l.001.001h.001l.002.002h.002v.001h.001l.001.001h.001l.001.001h.001v.001l.002.001.002.001.001.001h.001l.001.001h.001v.001h.002v.002h.002l.001.001h.001l.001.001v.001h.002v.001h.001l.001.001.001.001.002.001v.001h.001l.001.001.002.001v.001h.001l.001.001.001.002h.001l.002.001v.001l.002.001.002.002.006.005.01.01.007.007.014.016.006.009h.001l.001.003v.001l.001.001.002.003.001.002.001.001v.001l.002.001v.002h.001l.001.002v.002l.001.002v.004l.01.02.003.009.01.021a.36.36 0 01.007.029v.001l.001.006.002.005v.126a.796.796 0 01-.013.104l-.003.014v.003l-.001.004-.001.003v.004l-.002.003v.003l-.001.004-.007.025-.738 2.868-4.024 1.278.329-1.278.001-.006.001-.005v-.002l.002-.004.001-.007v-.003l.002-.006v-.005l.001-.005v-.014l.001-.004v-.03l-.001-.004-.003-.012V9.27l-.002-.004v-.001l-.001-.002-.008-.016-.001-.003-.004-.005-.002-.003-.002-.002-.005-.005-.008-.007-.01-.006h-.001l-.001-.001h-.001l-.001-.001h-.001l-.001-.001h-.001l-.001-.001h-.001l-.001-.001h-.001l-.001-.001h-.002l-.001-.001.015-.001h-.001l-.001-.001h-.002l-.001-.001h-.016l-.003-.001a.246.246 0 00-.04-.003H67.53c-.087 0-.172.002-.254.005l-.032.002-.08.005h-.014l-.017.002-.02.001-.011.001-.03.003-.016.001-.015.002-.016.001-.015.002h-.006l-.009.001-.015.002-.014.002h-.005l-.01.001-.015.002-.042.006-.016.002-.043.006-.042.007-.022.004h-.006l-.013.003-.044.008-.021.004-.01.002-.006.001-.024.005-.013.003h-.003l-.03.007-.019.005-.015.004h-.006l-.002.001h-.001l-.002.001h-.002l-.002.001h-.002l-.001.001h-.002l-.002.001h-.002l-.002.001h-.002l-.001.001h-.002l-.002.001h-.002l-.002.001h-.002l-.002.002h-.003l-.004.002h-.004l-.002.001h-.002l-.002.001-.003.002H66.5l-.002.001h-.002l-.002.001-.004.002h-.003l-.002.001h-.002l-.002.001-.002.001h-.002l-.002.001h-.001l-.002.001-.002.001h-.002l-.002.001h-.002l-.002.001-.001.001h-.002l-.002.001h-.002l-.002.002h-.003l-.002.001-.002.001-.036.012-.048.017-.009.003-.014.006-.006.002-.007.003-.007.002-.004.002-.011.005-.012.004-.012.005-.011.005h-.002l-.01.005-.01.005-.005.002-.019.008-.005.003-.006.003-.011.005-.011.005-.011.006-.011.005-.022.011-.01.006-.011.006-.01.006h-.002l-.02.012-.011.006-.01.006-.032.019-.007.004-.004.002-.01.007-.02.013-.01.007-.01.006-.03.021-.03.022-.02.015-.039.03-.01.008-.009.007-.009.008-.01.008-.009.008-.018.017-.01.008-.008.008-.019.017-.009.009-.035.035-.01.009-.017.018-.017.019-.002.003-.015.016-.009.01-.008.01-.006.007-.002.002-.009.01-.008.01-.008.01-.008.01-.007.008-.002.002-.008.01-.032.042-.024.032-.016.022-.007.01-.008.012-.006.01-.002.001-.03.045-.007.012-.002.002-.005.01-.006.008-.002.003-.015.024-.004.006-.003.006-.014.024-.014.025-.014.024-.007.013-.004.006-.003.006-.007.013-.007.013-.002.004-.005.009-.006.012-.006.011-.001.002-.02.04-.013.027-.007.014-.006.013-.001.002-.006.012-.005.011-.001.003-.006.014-.006.012-.001.002-.002.004-.004.01-.007.015-.006.014v.002l-.012.027-.006.015-.007.014-.024.06-.012.03-.012.032-.004.01-.002.006-.012.031-.028.08-.011.033-.003.008-.003.008-.003.009-.002.008-.038.119-.011.035-.002.008-.002.003-.002.008v.004l-.002.004-.001.003-.001.004-.001.004-.001.004-.001.004-.002.003v.004l-.002.004v.004l-.003.008-.001.004-.001.003-.003.008v.004l-.002.004-.001.004-.001.004-.001.003-.001.004-.001.004-.001.004-.002.004v.004l-.003.008v.004l-.002.004-.001.004-.001.004-.001.004-.001.004-.001.004-.001.004-.001.004-.002.004v.004l-.002.004v.004l-.002.004-.001.004-.001.004-.001.004-.001.004-.001.004-.001.004-.001.004-.01.037-.48 1.868-.082.317-.04.153-.034.14a1.969 1.969 0 00.066 1.54 1.693 1.693 0 001.438.474h6.406a.256.256 0 00.26-.219l.336-1.301H69.36l.101-.395.066-.253.529-2.055h7.192l-.547 2.125-.06.235-.089.342-.029.002zm42.182-2.236l-.206.16 4.917 7.049h-5.005l-3.206-4.64-5.744 4.64h-4.785l8.426-6.8.286-.232-4.679-6.263h4.918l1.399 1.998 1.48 2.11 5.291-4.108h4.772l-7.864 6.087zm-23.063 1.552l-1.315 5.108c-.094.366.04.549.397.549h12.025l4.271-3.452H99.16c-.173 0-.237-.087-.194-.255l.424-1.644h6.313l.209-.813.153-.594.334-1.296h-6.314l.428-1.662.002-.008.001-.002v-.002l.002-.005.001-.003v-.002l.001-.003.002-.005.003-.01.001-.002.001-.002.002-.006.002-.003.001-.003.002-.005.002-.005.003-.006.007-.013v-.002l.001-.001.001-.003.003-.005.003-.005.002-.003.002-.003.001-.002.002-.003.001-.003.002-.002.001-.003.006-.008.001-.003.003-.004.001-.001.002-.002.001-.002.002-.004.004-.005.002-.003.002-.002.006-.008.002-.002.004-.006.002-.002.002-.003.002-.002.003-.003.007-.007.004-.004.008-.007.005-.004.014-.01.005-.003.021-.012h.001l.003-.001.013-.006.007-.002.003-.001h.002l.002-.001.004-.002h.003l.015-.004.007-.002h.005l.007-.002h.003l.013-.002h.001l.012-.002.017-.001h8.804l-.316-.426-1.5-2.015-.286-.382-.044-.06-.33-.441h-9.071l-.003.001h-.007l-.004.001h-.003l-.003.001h-.007l-.004.001h-.003l-.003.001-.004.001h-.003L98 5.976h-.003l-.003.001-.004.001h-.003l-.003.001h-.003l-.004.001-.006.002h-.003l-.004.001-.01.003h-.003l-.003.001h-.003l-.006.002-.004.001-.01.003-.004.001-.01.003-.013.005a1.045 1.045 0 00-.036.013l-.01.004h-.001l-.002.001-.003.001-.002.001-.002.001-.002.001-.002.001h-.002l-.003.002h-.002l-.002.002h-.002l-.002.002h-.002l-.002.002h-.002l-.002.002-.002.001-.002.001-.002.001-.002.001-.002.001-.002.001-.002.001-.002.002H97.8l-.002.002h-.002l-.002.002-.002.001-.002.001a.585.585 0 00-.026.016l-.011.008-.011.008-.022.016-.01.008v.001l-.01.009-.02.018-.02.02-.007.008-.002.002-.01.01-.008.012-.008.01h-.001v.002l-.009.01-.008.012-.008.011-.008.013-.008.012v.003h-.001v.001l-.001.001v.001h-.001v.002l-.013.007-.001.002-.001.001v.001h-.001v.002h-.001v.001h-.001v.002h-.001v.001l-.001.002-.001.001v.002h-.001v.001l-.001.001v.002h-.001v.001h-.001v.002l-.001.001v.002h-.001v.002l-.002.002v.002h-.001v.002l-.001.001v.001l-.001.002-.001.002v.001l-.001.001v.001h-.001l-.007.015-.006.014-.013.029-.002.006-.004.009-.008.022-.003.008-.006.016-.004.012v.004l-.006.016-.005.016-.001.004-.004.013-.002.009-.002.008-1.728 6.698-.012.047-.089.346zm-17.354.34l-1.373 5.317h3.816l1.014-3.936 4.398.003 1.903 3.933h4.42a970.801 970.801 0 01-2.202-3.933 4.08 4.08 0 001.854-.52 4.021 4.021 0 001.4-1.307l.006-.008.031-.043.007-.008.03-.043.006-.008.006-.009.006-.008.012-.018.006-.008.006-.009.006-.008.006-.009.001-.003.01-.014.006-.009.006-.009.006-.008.006-.01.006-.008.011-.017.006-.01.005-.008.005-.009.006-.008.006-.01.005-.008.006-.009.006-.008.005-.01.006-.008.006-.009.005-.009.023-.036.019-.03.004-.007.007-.012.046-.076.003-.005.003-.006.003-.005.004-.006.003-.005.003-.005.003-.006.003-.005.004-.006.003-.005.003-.006.003-.005.003-.006.003-.005.006-.011.016-.027.007-.011a6.153 6.153 0 00.081-.15l.001-.002.003-.004.08-.157.03-.063.068-.143.007-.014.011-.027.028-.061.003-.007.019-.043.02-.047.008-.02.006-.014.003-.006.003-.008.011-.028.018-.045.012-.03.002-.005.003-.008.022-.056.016-.043.016-.04.008-.024.016-.043.01-.03.017-.048.03-.09.01-.03.018-.054.01-.037.007-.018.031-.106.008-.027.01-.036.004-.015.01-.034.007-.029.015-.053.126-.494.119-.457.007-.031.023-.092.022-.091.005-.025.001-.006.004-.017.01-.043.002-.011.004-.018.013-.06.006-.03.002-.01.004-.019.011-.059.006-.029.01-.058L95 9.58l.01-.058.003-.018.001-.01.002-.014.003-.015.008-.056.002-.013.003-.016.003-.028.004-.028.003-.028.01-.083.009-.082.005-.054.005-.054.001-.024v-.003l.002-.026.002-.027.002-.027.001-.026.003-.052V8.81l.001-.026.001-.026.001-.052V8.57c0-.046-.002-.09-.004-.136v-.021a1.915 1.915 0 00-.007-.097v-.007l-.002-.024-.005-.047-.008-.071-.004-.027-.003-.02-.001-.011-.002-.012-.002-.014-.002-.009-.008-.045-.008-.041v-.006l-.005-.02-.005-.023-.005-.022-.005-.022-.005-.022-.017-.065-.004-.014-.002-.008-.019-.063-.013-.042-.011-.031-.004-.01-.022-.062-.008-.02-.025-.06-.017-.04-.018-.04-.028-.057-.005-.01-.005-.009a2.19 2.19 0 00-.155-.255l-.005-.007-.002-.003-.002-.002-.001-.002-.002-.003-.001-.002-.002-.002-.002-.002-.002-.003-.001-.002-.002-.002-.002-.003-.001-.002-.002-.002-.002-.003-.001-.002-.002-.002-.002-.003-.002-.002-.001-.002-.002-.003-.002-.002-.002-.002-.001-.003-.002-.002-.002-.002-.004-.005-.002-.002-.001-.002-.002-.003-.002-.002-.002-.002-.002-.003-.001-.002-.002-.002-.002-.003-.002-.002-.002-.002-.002-.003-.002-.002-.002-.002-.001-.002-.007-.007-.001-.002-.002-.002-.002-.003-.004-.004-.002-.003-.002-.002-.002-.002-.003-.005-.016-.018-.01-.01-.005-.008-.022-.023-.037-.04-.022-.023-.012-.011-.014-.014-.014-.014-.031-.03-.033-.029-.009-.007-.008-.008-.034-.028-.052-.042-.047-.035-.026-.02-.016-.01-.022-.016-.007-.005-.012-.008-.022-.014-.036-.024-.06-.037-.041-.024-.063-.035-.043-.022-.022-.011-.024-.012-.02-.01-.016-.008-.007-.003-.01-.006-.035-.016-.023-.01-.046-.02-.024-.01-.024-.01-.024-.01-.008-.003-.016-.006-.049-.019-.025-.009-.024-.01-.022-.006-.003-.002-.026-.009-.025-.008-.005-.002-.02-.007-.027-.008-.026-.008-.027-.008-.027-.008-.027-.008-.027-.008-.027-.007-.028-.008-.028-.007-.028-.007-.029-.007-.041-.01-.045-.01-.059-.012-.03-.006-.09-.018-.093-.016-.03-.005-.064-.01-.064-.009-.055-.007-.01-.001-.033-.004-.1-.012-.034-.003-.07-.008h-.006l-.063-.005-.104-.008h-.019l-.005-.001h-.024l-.005-.001h-.2l-.025-.001-.047-.002-.047-.001h-.034l-.028-.001H80.356l-.001.006-.008.028-1.996 7.73-.062.237v-.013zM47.912 6.496l-.004.017-1.508 5.855-1.633 6.344c-.094.366.039.549.397.549h14.289a3.72 3.72 0 01-.246-.316 4.357 4.357 0 01-.73-2.31 7.418 7.418 0 01.01-.826H49.6c-.173 0-.238-.086-.194-.255l.423-1.644h6.314l.098-.38.103-.402.495-1.92h-6.313l.427-1.663.009-.028.011-.03.003-.006.004-.008v-.001l.001-.002.001-.003.002-.002v-.003l.002-.003.005-.008.002-.005.003-.006.002-.002.002-.003.008-.013V9.42l.002-.002.001-.003.004-.005.001-.002.002-.003.002-.003.002-.002.004-.005.002-.003.004-.005.003-.005.003-.003.004-.005.002-.002.002-.003.002-.003.002-.002.005-.005.005-.004.002-.003.004-.003.003-.003.003-.002.002-.002.007-.005.004-.003.001-.001.002-.001.006-.004h.001l.003-.002.004-.002.004-.003.009-.004h.002l.001-.002.006-.002.003-.001.002-.001h.003l.006-.003.004-.002h.003l.004-.002h.004l.014-.005h.003l.008-.002h.003l.004-.002.013-.002h.008l.021-.002h.018l.005-.001h8.941c.06-.129.123-.256.188-.384l.011-.022.075-.14.018-.033.006-.011.005-.01.012-.022.006-.011.006-.01.006-.011.006-.011.006-.01.006-.012.006-.01.023-.04.017-.03.006-.011.023-.04.004-.008.044-.072.048-.08.049-.079.025-.04.025-.038.025-.04.026-.039.022-.033.003-.006.026-.038.014-.02.013-.019.053-.077.009-.013.018-.025.027-.038.055-.075.028-.038.028-.037.028-.038.029-.037.066-.085.02-.026.03-.037.06-.073.074-.089.016-.018.062-.072.063-.07.023-.026.008-.01.064-.07.028-.03.012-.012.004-.005.004-.004.004-.004.009-.009.004-.004.004-.005.004-.004.004-.004.004-.004.004-.005.004-.004.004-.004.004-.005.005-.004.004-.004.004-.004.004-.005.004-.004.004-.004.008-.008.004-.005.004-.004.004-.004.005-.004.004-.004.004-.005.004-.004.004-.004.004-.004.005-.004.004-.004.004-.005.004-.004.004-.004.004-.004.009-.008.004-.005.004-.004.008-.008.047-.046.072-.07.082-.077.003-.002.005-.005.005-.005.003-.003.002-.002.005-.005.005-.004.005-.005.005-.004.005-.005.005-.004.005-.005.004-.004.005-.005.005-.004.005-.005.005-.004.005-.005.005-.004.005-.005.01-.008.004-.005.005-.004.005-.005.005-.004.005-.004.005-.005.005-.004.005-.005.005-.004.005-.005.005-.004.005-.005.005-.004.006-.005.005-.004.005-.005.005-.004.005-.004.005-.005.005-.004.006-.005.005-.004.005-.005.005-.004.005-.004.005-.005.005-.004.005-.005.006-.004.005-.004.005-.005.005-.004.005-.005.005-.004.005-.004.005-.005.006-.004.005-.005.005-.004.005-.004.005-.005.01-.008.01-.01.011-.008.014-.011.03-.025.008-.007.011-.009.007-.005.006-.005.064-.051.018-.014.013-.01.057-.045.01-.008.003-.001.026-.02.006-.005.026-.022.01-.007.009-.007.01-.008.002-.002.085-.061H48.489l-.004.001h-.003l-.004.001h-.007l-.003.001h-.004l-.003.001h-.004l-.003.001-.008.005h-.003l-.004.001h-.003l-.003.002h-.007l-.003.001-.004.001h-.003l-.003.001-.007.002h-.003l-.003.001-.01.002-.004.001-.003.001h-.003l-.006.002-.003.001-.01.003-.005.001-.01.003-.013.005-.013.004-.026.01h-.001l-.002.001-.002.001h-.001l-.002.001-.002.001h-.001l-.001.001-.001.001h-.002l-.005.002h-.001l-.002.001-.002.001h-.001l-.001.001-.001.001h-.002v.001h-.002v.001h-.002l-.001.001h-.001l-.001.001h-.001l-.002.001-.002.002h-.002l-.001.001h-.001l-.002.001v.001h-.002l-.001.001h-.001l-.001.002h-.003v.001l-.002.001-.002.001h-.001l-.001.002h-.002l-.001.001-.001.001h-.002v.001h-.002l-.006.005-.024.014-.011.008-.008.006-.003.002-.011.008-.01.008-.005.004-.007.005-.01.009-.004.004-.006.005-.01.01-.01.01-.001.001-.008.008-.006.007-.003.004-.01.01-.01.013-.007.009-.002.003-.007.009-.016.023-.009.012-.007.013-.001.001v.001l-.001.002-.001.001v.001h-.001v.002h-.001v.002h-.001l-.002.003-.01.019-.002.003-.001.003-.001.002v.002h-.001v.001l-.001.001v.002h-.001v.002h-.001v.002l-.001.001v.001l-.008.014-.006.014-.01.02-.003.009-.006.015-.012.03-.005.016-.004.012-.001.004-.001.003-.004.013-.004.012-.001.004-.005.017h-.003zm-3.499 6.372c.082.21.124.433.123.658a5.059 5.059 0 01-.185 1.297l-.273 1.06a5.7 5.7 0 01-.578 1.45 3.501 3.501 0 01-.94 1.06 4.06 4.06 0 01-1.394.649c-.63.156-1.28.23-1.93.219H27.201l.889-3.452h10.79c.241.022.484-.04.685-.173.164-.17.273-.382.315-.612l.094-.366a.669.669 0 00.004-.483c-.056-.092-.2-.15-.43-.174l-7.836-1.004a5.41 5.41 0 01-1.317-.33 1.896 1.896 0 01-.806-.583 1.529 1.529 0 01-.29-.711l-.001-.014v-.003l-.001-.003v-.006l-.001-.002v-.003l-.001-.003v-.005l-.001-.004v-.005l-.001-.003v-.009l-.001-.003v-.037l-.001-.006v-.077l-.002-.017v-.016l-.001-.017v-.017l-.001-.017v-.175l.001-.018.001-.018.001-.018v-.018l.003-.037.002-.02c0-.018.002-.037.004-.055l.002-.02.002-.018c.023-.216.06-.43.11-.642l.006-.022.005-.023.006-.022.005-.022.006-.023.006-.023.149-.579.09-.352.024-.09.013-.044.025-.087.013-.043.01-.033.004-.01.004-.01.01-.033.014-.042.01-.03.005-.013.003-.01.026-.073.016-.041.031-.081.016-.04.033-.077.018-.042.018-.04.054-.114.015-.03.004-.008.005-.01.052-.1.013-.023.007-.014.061-.107.014-.023.007-.012.007-.012.014-.023.066-.102.012-.017.011-.017.03-.044.016-.022.01-.014.037-.05.016-.021.008-.012.015-.02.01-.011.001-.002.002-.002.001-.002.002-.002.001-.002.002-.002.001-.002.002-.002v-.001l.002-.002.002-.002.001-.002.002-.002.001-.002.002-.002.001-.002.001-.001.002-.002.001-.002.002-.002.001-.002.002-.002.001-.002.002-.002.001-.001.002-.002.001-.002.001-.002.002-.002.001-.002.002-.002-.005-.007.002-.002.001-.002.002-.002.001-.002.002-.002.001-.001.002-.002.001-.002.002-.002.001-.002.002-.002.001-.002.002-.002.001-.001.002-.002.002-.002.001-.002.002-.002.001-.002.002-.002.001-.002.002-.001.002-.002.001-.002.002-.002.001-.002.002-.002.002-.002.001-.002.002-.001.002-.002.001-.002.026-.03.014-.016.004-.005.004-.005.005-.005.004-.005.005-.005.004-.005.005-.005.004-.005.005-.005.005-.005.004-.005.005-.005.004-.005.005-.005.005-.005.018-.02.01-.01a3.517 3.517 0 01.12-.119l.004-.005.005-.004.02-.019.005-.005.005-.004.005-.005.004-.004.005-.005.005-.004.005-.005.005-.004.005-.005.06-.052v-.001l.002-.001.002-.001v-.002h.002l.003-.003.001-.001.002-.001.002-.002.002-.001.001-.002h.002l.001-.002.011-.01h.002l.057-.047.047-.038.004-.003.003-.002.003-.003.004-.002.003-.003.003-.003.004-.002.003-.003.007-.005.003-.002.004-.003.003-.002.004-.003.003-.002.004-.003.003-.002.003-.003.004-.002.004-.003.003-.002.004-.003.003-.002.004-.003.007-.005.007-.005.025-.017.04-.027.015-.01.068-.044h.002l.001-.002h.002l.002-.002h.001l.002-.002h.001l.002-.002h.002l.001-.002h.002l.002-.002h.001l.002-.001.001-.001.002-.001.001-.001.002-.001.002-.001.001-.001.002-.001.001-.001.002-.001.002-.001h.001l.002-.002h.001l.002-.002h.002l.001-.002h.002l.002-.001.001-.001.002-.001.001-.001.002-.001.002-.001.001-.001.002-.001.001-.001h.002l.002-.002h.001l.002-.002h.001l.002-.002h.002l.001-.002.004-.001.001-.001.002-.001.001-.001.002-.001.017-.01.036-.02.003-.001.002-.002.003-.001.003-.002.003-.001.003-.002.002-.001.006-.004.003-.001.005-.003.003-.002.006-.003.003-.001.003-.002.002-.001.003-.002.003-.001.003-.002.002-.001.003-.002.003-.001.003-.002.003-.001.002-.002.003-.001.003-.001.003-.002.003-.001.002-.002.003-.001.003-.002.003-.001.002-.001.003-.002.006-.003.003-.001.003-.002.002-.001.003-.001.003-.002.003-.001.003-.002.003-.001.002-.001.003-.002.006-.002.006-.003.003-.002.005-.002.003-.002.003-.001.006-.003.011-.006.078-.034.039-.017.04-.017.017-.007.022-.009.081-.031.005-.002.006-.002.005-.002.005-.002.005-.001.005-.002.005-.002.005-.002.005-.002.006-.002.005-.002.005-.002.005-.001.005-.002L32 6.24l.005-.002.005-.002.005-.001.005-.002.005-.002.006-.002.005-.001.005-.002.005-.002.005-.002.006-.001.005-.002.005-.002.005-.002.006-.001.005-.002.005-.002.006-.001.005-.002.005-.001.005-.002.006-.002.005-.001.005-.002.006-.001.005-.002.005-.002.006-.001.005-.002.005-.002.006-.001.005-.002.005-.001.006-.002.005-.001.005-.002.006-.002.005-.001.005-.002.005-.001.006-.002.005-.001.005-.002.006-.001.005-.002.005-.001.006-.002.005-.001.005-.001.005-.002.084-.022.009-.002.008-.002.008-.002.009-.002.008-.002.008-.002.009-.002.008-.002.009-.002.008-.002.008-.002.009-.002.024-.01.01-.002.008-.002.008-.002.009-.002.008-.002.01-.002.008-.002.009-.002.008-.001.009-.002.009-.002.009-.002.008-.002.01-.001.008-.002.009-.002.009-.001.009-.002.008-.002.01-.001.008-.002.009-.002.054-.01.018-.002a5.811 5.811 0 01.287-.04l.027-.004.013-.001.014-.002.013-.001.014-.002.013-.001.014-.001.014-.002.013-.001.014-.001.014-.002h.013l.014-.002.014-.001.016-.001.014-.001.014-.001.014-.001.014-.001.014-.001.014-.001.014-.001.014-.001h.014l.014-.002h.014l.014-.001.015-.002h.015l.014-.001h.014l.015-.001h.014l.014-.001.015-.001h.014l.015-.001.015-.001h.028l.014-.001h.015l.015-.001h12.285l.004.001h.005l.005.001h.009l.005.001.005.001h.004l.005.001h.004l.005.001.004.001h.005l.004.002h.005l.004.001h.004l.004.002h.005l.004.001.004.001.004.001.004.001.004.001h.004l.004.002.004.001.004.001.004.001.004.001.004.001.004.001.004.002h.003l.004.002.004.001.003.002h.004l.004.002.003.002.004.001.003.001.004.002.003.001.004.002.003.001.004.002.003.001.003.002h.002l.002.002h.002l.002.001.002.001.002.001.002.001.001.001.002.001.002.001.002.001.002.001.001.001.002.001.002.001.001.001.002.001.002.001.002.001.001.002h.002l.001.002h.002l.002.002.003.002.003.002.002.001.005.004.001.001.002.001.001.001.002.001.001.002h.002l.001.002.002.001.001.001.002.001v.002h.002l.002.002.001.001.001.002h.002l.001.002.001.002h.002v.002l.002.002h.002l.002.004.003.002.001.002.002.003.004.004.014.018h.001v.002h.001v.002h.001l.003.004.002.003.001.002v.001l.002.002a.32.32 0 01.026.055l.002.003.005.018.003.008v.001l.001.004.001.003.001.005v.002l.001.003.003.01.001.012v.005l.001.004v.009l.001.004v.135l-.001.004v.004l-.001.005v.004l-.001.005v.004l-.002.005v.009l-.002.005v.004l-.001.005v.005l-.002.004-.002.015-.002.01a1.369 1.369 0 01-.013.055l-.388 1.508-.214.83H34.544l-.022.002h-.012l-.01.002h-.012l-.043.005h-.004l-.006.001-.01.002-.011.001-.01.002-.04.007-.02.003-.028.007-.019.005-.026.008-.01.003-.008.002-.003.001-.005.002-.006.002-.003.001-.009.004-.024.009-.008.003-.008.003-.016.008h-.002l-.008.006-.008.004-.007.004-.003.001-.004.003-.005.003-.002.001-.015.008-.008.005-.001.001h-.002v.001l-.002.001-.003.002h-.002v.002h-.002v.001h-.002l-.001.001-.001.001h-.002l-.002.003-.003.002h-.001l-.001.001-.002.001v.001h-.002v.002h-.002v.001l-.002.001-.001.001h-.001l-.001.002h-.001l-.001.001-.001.001h-.001l-.001.002h-.001l-.001.001-.001.001h-.001l-.001.002h-.001l-.001.001-.001.001h-.001l-.001.002-.002.001v.001h-.002l-.001.003-.004.003-.003.002-.01.009-.017.016-.002.002-.003.003-.006.006-.005.006-.011.011-.011.012-.005.006-.006.006-.002.004-.003.003-.005.006-.005.006-.005.007-.005.006-.01.013-.004.006-.005.007-.014.02-.005.008-.008.014-.005.007-.017.03-.012.023-.002.004-.005.012-.008.016-.004.008-.002.005-.001.003-.01.025-.005.009-.006.016-.004.011-.003.007-.003.008-.003.01-.006.017-.003.01-.001.002-.002.006-.003.01-.002.006v.003l-.003.008-.006.02-.005.02-.027.104-.057.224a1.716 1.716 0 00-.041.203l-.003.019a.945.945 0 00-.003.044v.009a.697.697 0 00-.002.04v.03l.001.006v.007l.001.007.002.014.002.012.002.012.002.006.004.017c.007.025.02.047.038.066l.004.005.002.002.003.004.003.002v.001h.002l.003.003.003.004.005.003.017.012.009.006.002.002.003.002.01.006.01.006.01.005h.002l.023.012.004.002h.002l.004.003h.003l.006.003.007.003.007.003.006.002.003.001.004.002.007.002.007.003.008.002.023.008.015.005.008.002.009.002.016.005.007.002h.002l.008.003.027.006.01.002.019.005.009.002.02.004.02.003.041.008.033.005.01.002 8.096 1.154.048.007.024.003.023.004.024.003.042.007.005.001.022.004.023.004.017.003h.006l.045.009.023.004h.005l.039.008.04.008.026.005.043.01.017.003.004.001.006.002.015.003.013.002.008.002.042.01.02.005.042.01.04.01.04.01.02.006.023.006.035.01.02.006.056.017.02.006.017.005.068.023.023.007.104.038.01.004.013.005.031.012.013.006.01.004.023.009.063.028.016.007.031.014.038.019.002.001.005.002.007.004h.002l.003.002.008.004.006.004.004.001.007.004.004.002.002.001.002.001c.034.018.067.036.099.056l.036.021.023.015a1.856 1.856 0 01.335.276l.008.009.017.019.008.01.009.009.008.01.008.009.008.01.008.01.007.009.008.01.007.01.008.01.007.01.03.04.014.023.015.024.003.004.002.004.002.004h.001l.002.004.002.003.003.005v.001l.002.002.002.005.003.003v.002l.002.003.003.004.002.003v.002l.002.002.002.005.003.004v.002l.002.002.002.004.002.004.002.002v.002l.003.004.002.004.001.003.001.001.002.004.002.004.002.003v.002l.003.004.002.004.002.003v.001l.002.004.002.005.002.003.003.005.002.004.001.004.002.005.002.004.002.004.002.004.002.005.002.004.002.004.002.005.002.004a.848.848 0 01.017.039l.002.002zm41.683-.377h-3.621l.115-.447.634-2.461a.582.582 0 01.085-.19l.005-.006.01-.012.014-.016a.338.338 0 01.022-.02l.016-.012.006-.004.006-.004.006-.004.012-.007.006-.003.007-.003.006-.003.006-.003.007-.003.006-.002.007-.002.006-.003.007-.002.007-.002.007-.001.007-.002.008-.001.007-.002h.007l.008-.002h.007l.008-.001h.008l.008-.001h6.54l.006.001.012.001h.006l.011.001h.006l.006.001.012.001.011.001.012.001.011.001.044.006.017.002h.005l.005.001h.005l.006.002h.005l.005.001h.005l.005.002h.004l.005.001h.005l.005.002h.005l.004.001.005.001h.005l.004.002h.005l.005.001.004.001.005.001.005.001.005.001h.004l.005.002h.004l.019.005.022.005.023.005.009.002.008.002.005.001.004.001.004.001.005.001.004.001.008.003h.005l.004.002.004.001.004.001.004.001.004.002h.004l.004.002.004.001.004.001.004.002h.004l.008.004.015.005.015.005.028.011.015.006.052.024.038.02.01.005.024.015.025.017.008.005.01.008.01.008.02.015.01.008.007.007.01.01.007.007.002.002.017.018.007.009.002.002.006.007.008.01.007.01.007.01.006.01.007.01.004.006.002.004.004.006.002.005.006.011.006.011.006.012.003.007.002.005.005.012.01.025.004.013.012.039.003.014.01.042.002.015.005.03.005.043v.003l.001.016.003.033v.104l-.002.055-.001.018-.001.011-.001.008-.001.02-.002.019-.003.02-.005.04-.003.02-.003.024-.003.018-.004.023-.003.019-.004.021-.004.022-.004.022-.005.022-.005.023-.004.023-.01.046-.005.017-.002.006-.005.024-.007.024-.078.304-.04.153-.003.014-.003.012-.004.014-.01.036-.003.012-.004.013-.007.025-.007.024-.007.024-.015.047-.004.013-.01.033-.016.046-.016.044-.005.014-.003.008-.017.042-.008.02-.008.022-.009.02-.008.02-.01.02-.026.058-.009.019-.009.019-.01.018-.018.036-.01.018-.019.034-.002.004-.007.013-.025.04-.005.008-.02.032-.011.015-.025.036-.007.008-.01.014-.033.041-.01.014-.013.013-.01.012-.008.009-.004.004-.011.012-.023.023-.012.012-.012.01-.007.007-.017.015-.012.01-.012.01-.025.02-.012.009-.02.014-.002.002-.008.005-.015.01-.017.011-.032.02-.034.02-.03.015-.028.014-.01.005-.007.003-.016.007-.008.004-.002.001-.025.01-.009.004-.044.018-.03.01-.023.009-.032.01-.018.005-.037.011-.003.001-.011.003-.015.004-.017.004-.018.005-.038.008-.014.004-.031.006-.046.008-.016.003h-.002l-.03.005-.029.004h-.003l-.016.003h-.002l-.014.002-.033.003-.034.004-.016.002-.018.001-.017.002h-.053l-.162.001h-.107.005-.164l-.272.002h-.165l-.277.002h-.621l-.169.001h-1.1l-.133.015z"/><path fill-rule="evenodd" clip-rule="evenodd" d="M8.73 1.798a11.69 11.69 0 016.703-.217c2.207.584 4.189 1.8 5.695 3.497a11.344 11.344 0 012.769 6.033 11.284 11.284 0 01-1.092 6.535 11.468 11.468 0 01-4.584 4.834 11.67 11.67 0 01-12.808-.827 11.414 11.414 0 01-3.907-5.384 11.277 11.277 0 01.577-8.713 11.426 11.426 0 012.743-3.532A11.587 11.587 0 018.73 1.798zm3.714.83c-1.998 0-3.95.584-5.61 1.68a10.001 10.001 0 00-3.72 4.476 9.859 9.859 0 00-.575 5.763 9.936 9.936 0 002.764 5.106 10.138 10.138 0 005.17 2.73c1.96.384 3.99.187 5.835-.568a10.072 10.072 0 004.533-3.673 9.866 9.866 0 00.933-9.358 9.967 9.967 0 00-2.19-3.235 10.109 10.109 0 00-3.276-2.162 10.21 10.21 0 00-3.864-.76z"/><path fill-rule="evenodd" clip-rule="evenodd" d="M10.79 7.788a5.207 5.207 0 012.771-.149c.92.202 1.767.65 2.448 1.295h2.76a7.306 7.306 0 00-3.437-2.991 7.42 7.42 0 00-4.564-.394 7.35 7.35 0 00-3.91 2.357 7.196 7.196 0 00-1.732 4.189h14.635a7.166 7.166 0 00-.494-2.148H8.055a5.114 5.114 0 012.734-2.159zm3.308 9.625c-.893.3-1.852.352-2.772.15a5.165 5.165 0 01-2.447-1.296h-2.76a7.307 7.307 0 003.437 2.992 7.42 7.42 0 004.564.394 7.35 7.35 0 003.91-2.357 7.196 7.196 0 001.731-4.189H5.126c.053.737.22 1.46.494 2.148h11.212a5.113 5.113 0 01-2.734 2.158z"/><path fill-rule="evenodd" clip-rule="evenodd" d="M8.444.967a12.59 12.59 0 017.218-.234A12.464 12.464 0 0121.797 4.5a12.216 12.216 0 012.982 6.497 12.152 12.152 0 01-1.176 7.038 12.35 12.35 0 01-4.937 5.207 12.566 12.566 0 01-13.793-.892 12.292 12.292 0 01-4.208-5.798 12.147 12.147 0 01.622-9.383 12.393 12.393 0 017.158-6.2zm4 .893c-2.152 0-4.254.63-6.043 1.81a10.77 10.77 0 00-4.005 4.821 10.617 10.617 0 00-.619 6.206 10.7 10.7 0 002.977 5.499 10.92 10.92 0 005.568 2.94c2.11.414 4.296.2 6.284-.612a10.848 10.848 0 004.88-3.956 10.624 10.624 0 001.005-10.077 10.732 10.732 0 00-2.357-3.485 10.886 10.886 0 00-3.528-2.328 10.996 10.996 0 00-4.163-.818z"/><path d="M130.948 3.785c.012.434-.108.862-.344 1.229a2.203 2.203 0 01-.98.83 2.237 2.237 0 01-2.43-.438 2.171 2.171 0 01-.502-2.389 2.19 2.19 0 01.817-.988c.365-.241.796-.37 1.236-.368a2.182 2.182 0 011.551.606 2.12 2.12 0 01.652 1.518zm-3.869 0a1.634 1.634 0 00.474 1.201 1.684 1.684 0 002.385-.004 1.626 1.626 0 00.459-1.185 1.643 1.643 0 00-.458-1.202 1.66 1.66 0 00-1.195-.507 1.681 1.681 0 00-1.198.498 1.621 1.621 0 00-.467 1.198zm1.325 1.114h-.499V2.774c.273-.047.55-.069.827-.064.259-.021.519.033.747.155a.596.596 0 01.21.466.542.542 0 01-.446.493v.026a.634.634 0 01.393.517c.022.185.075.365.158.532h-.538a1.825 1.825 0 01-.171-.518c-.039-.233-.17-.337-.445-.337h-.236v.855zm.012-1.205h.236c.276 0 .499-.09.499-.311 0-.194-.144-.324-.459-.324a1.201 1.201 0 00-.276.026v.609z"/></g><defs><clipPath id="clip0_2002_173"><path fill="#fff" transform="translate(0 .101)" d="M0 0h131v25H0z"/></clipPath></defs></svg>