<svg width="5" height="13" fill="none" xmlns="http://www.w3.org/2000/svg"><g clip-path="url(#clip0_2002_208)" opacity=".5"><path fill-rule="evenodd" clip-rule="evenodd" d="M3.738 9a18.08 18.08 0 001.136 1.727.474.474 0 01-.144.735l-.3.257a1.001 1.001 0 01-.805.279 4.638 4.638 0 01-1.49-.232 4.227 4.227 0 01-1.9-3.1 9.614 9.614 0 01.024-4.3 4.335 4.335 0 011.934-3.118 4.707 4.707 0 011.493-.244.974.974 0 01.8.272l.3.255a.48.48 0 01.113.739c-.454.677-.788 1.159-1.132 1.73a.43.43 0 01-.557.182l-.468-.061a.553.553 0 00-.7.309 6.205 6.205 0 00-.395 2.079c.003.708.129 1.41.372 2.076a.541.541 0 00.7.3l.468-.063a.432.432 0 01.555.175L3.738 9z" fill="#fff"/></g><defs><clipPath id="clip0_2002_208"><path fill="#fff" d="M0 0h5v13H0z"/></clipPath></defs></svg>