<svg width="21" height="17" fill="none" xmlns="http://www.w3.org/2000/svg"><path fill-rule="evenodd" clip-rule="evenodd" d="M21 1.196a.95.95 0 010 .226v.02a.955.955 0 01-.112.357L15.93 12.682a.929.929 0 01-.046.153.975.975 0 01-.179.214.972.972 0 01-.28.2c-.017.008-.032.02-.05.026a.974.974 0 01-.267.063 1.08 1.08 0 01-.127.012.987.987 0 01-.213-.036 1.001 1.001 0 01-.132-.022c-.02-.009-.035-.027-.056-.036-.02-.009-.036-.007-.052-.016l-3.133-1.8-3.523 4.4-.2.23a.956.956 0 01-.218.146 1.052 1.052 0 01-.1.047.974.974 0 01-.3.06c-.019 0-.035.011-.054.011h-.026a.967.967 0 01-.293-.06.818.818 0 01-.1-.033.79.79 0 01-.082-.028.904.904 0 01-.13-.116.73.73 0 01-.234-.284.888.888 0 01-.069-.142 1.032 1.032 0 01-.043-.213A.964.964 0 016 15.34V8.354L.68 5.304a.979.979 0 01-.618-.62 1.19 1.19 0 01-.044-.119c0-.014-.012-.024-.014-.039a.749.749 0 010-.082.966.966 0 011.118-1.112L19.852.34c.026 0 .051.005.077 0 .026-.005.047 0 .071 0a.98.98 0 01.307.037c.03.012.06.027.09.042a.96.96 0 01.232.128c.044.04.085.083.122.13a.953.953 0 01.12.15c.01.018.028.03.038.048a1 1 0 01.06.212c.01.024.02.049.027.074a.217.217 0 01.004.035zm-6.453 9.74L17.88 3.62l-8.3 4.467 4.968 2.847zM8 12.51l1.651-2.064-1.65-.946v3.01zm-.462-5.59l6.83-3.676L4.01 4.897 7.54 6.92z" fill="#fff" opacity=".35"/></svg>